<svg width="26.000000" height="26.000000" viewBox="0 0 26 26" fill="none" xmlns="http://www.w3.org/2000/svg" xmlns:xlink="http://www.w3.org/1999/xlink">
	<desc>
			Created with Pixso.
	</desc>
	<defs/>
	<rect width="26.212765" height="26.212765" transform="translate(-0.659424 -0.851074)" fill="#FFFFFF" fill-opacity="0"/>
	<path d="M12.44 10.58L12.44 13.92L17.16 13.92C16.47 15.86 14.62 17.25 12.44 17.25C9.68 17.25 7.44 15.01 7.44 12.25C7.44 9.49 9.68 7.25 12.44 7.25C13.64 7.25 14.79 7.67 15.68 8.45L17.87 5.94C16.37 4.63 14.45 3.91 12.44 3.91C7.84 3.91 4.1 7.65 4.1 12.25C4.1 16.85 7.84 20.59 12.44 20.59C17.04 20.59 20.78 16.85 20.78 12.25L20.78 10.58L12.44 10.58Z" fill="#000000" fill-opacity="1.000000" fill-rule="nonzero"/>
	<mask id="mask2_22" mask-type="alpha" maskUnits="userSpaceOnUse" x="4.106445" y="3.914879" width="16.680851" height="16.680851">
		<path d="M12.44 10.58L12.44 13.92L17.16 13.92C16.47 15.86 14.62 17.25 12.44 17.25C9.68 17.25 7.44 15.01 7.44 12.25C7.44 9.49 9.68 7.25 12.44 7.25C13.64 7.25 14.79 7.67 15.68 8.45L17.87 5.94C16.37 4.63 14.45 3.91 12.44 3.91C7.84 3.91 4.1 7.65 4.1 12.25C4.1 16.85 7.84 20.59 12.44 20.59C17.04 20.59 20.78 16.85 20.78 12.25L20.78 10.58L12.44 10.58Z" fill="#000000" fill-opacity="1.000000" fill-rule="nonzero"/>
	</mask>
	<g mask="url(#mask2_22)">
		<rect width="26.212765" height="26.212765" transform="translate(-0.659424 -0.851074)" fill="#FFFFFF" fill-opacity="0"/>
		<rect x="-0.659424" y="-0.851074" width="26.212765" height="26.212765" fill="#FFFFFF" fill-opacity="1.000000"/>
	</g>
</svg>
