<svg width="285.000000" height="33.000000" viewBox="0 0 285 33" fill="none" xmlns="http://www.w3.org/2000/svg" xmlns:xlink="http://www.w3.org/1999/xlink">
	<desc>
			Created with Pixso.
	</desc>
	<defs/>
	<path d="M182.87 18.4L193.48 18.4L193.48 20.87L182.87 20.87L182.87 18.4ZM6.45 3.41L5.5 28.21L5.5 28.64C5.5 30.75 6.12 31.18 9.44 31.42L9.44 32.56C7.02 32.37 6.07 32.33 4.74 32.33C3.41 32.33 2.46 32.37 0 32.56L0 31.42C3.32 31.18 3.79 30.8 3.89 28.21L4.89 4.74L4.89 4.46C4.89 2.26 4.22 1.78 0.94 1.59L0.94 0.39C2.8 0.54 3.51 0.59 4.84 0.59C6.59 0.59 7.54 0.54 9.35 0.35L18.18 24.53L27.15 0.35C29.29 0.54 30.28 0.59 31.71 0.59C32.9 0.59 33.66 0.54 35.46 0.39L35.46 1.59C32.23 1.78 31.52 2.26 31.52 4.41L31.52 4.74L32.04 28.21C32.09 30.8 32.52 31.18 35.93 31.42L35.93 32.56C32.94 32.28 31.8 32.18 30 32.18C28.2 32.18 27.06 32.28 24.07 32.56L24.07 31.42C27.29 31.23 28.01 30.7 28.01 28.45L28.01 28.21L27.58 3.45L19.74 24.77L19.18 26.35L18.51 28.12L17.89 29.93L17.37 31.51L16.66 31.51L16.14 29.98L15.47 28.12L14.81 26.25L14.24 24.58L6.45 3.41ZM42.1 18.84C42.58 13.35 44.38 10.53 47.42 10.53C50.51 10.53 52.07 13.2 52.36 18.84L42.1 18.84ZM48.27 31.37C43.95 31.37 42.06 28.02 42.01 20.57L56.16 20.57C56.06 13.2 53.07 9.28 47.47 9.28C41.77 9.28 38.21 13.92 38.21 21.28C38.21 28.64 41.77 32.95 47.89 32.95C52.55 32.95 55.59 30.03 56.2 25.11L54.3 25.11C53.73 29.17 51.65 31.37 48.27 31.37ZM58.98 11.05L58.98 10.19C61.69 9.95 63.3 9.67 65.25 9.09C65.49 10.86 65.58 11.63 65.68 13.06L65.68 13.59C66.72 10.86 68.76 9.28 71.23 9.28C73.6 9.28 75.36 10.86 75.36 13.16C75.36 14.54 74.55 15.45 73.37 15.45C72.28 15.45 71.42 14.78 71.42 13.83C71.42 13.73 71.47 13.54 71.52 13.35L71.61 12.87L71.61 12.44C71.61 11.77 71.04 11.29 70.19 11.29C67.72 11.29 66.15 14.3 66.15 19.04L66.15 29.03C66.15 31.08 66.63 31.46 69.52 31.61L69.52 32.56C66.91 32.33 65.91 32.28 64.25 32.28C62.54 32.28 61.55 32.33 58.93 32.56L58.93 31.61C61.83 31.46 62.35 31.08 62.35 29.03L62.35 14.16L62.35 13.4C62.31 11.34 62.07 11.1 59.6 11.05L58.98 11.05ZM93.52 8.85L93.52 16.74L92.48 16.74C91.62 12.58 89.87 10.58 86.97 10.58C83.41 10.58 81.32 14.45 81.32 21.28C81.32 27.98 83.17 31.37 86.83 31.37C89.77 31.37 91.53 29.27 92.1 25.06L94.05 25.06C93.43 30.17 90.72 32.95 86.45 32.95C80.94 32.95 77.19 28.26 77.19 21.28C77.19 14.16 80.99 9.28 86.59 9.28C88.63 9.28 89.91 9.81 91.43 11.29L92.72 8.85L93.52 8.85ZM101.32 18.84C101.79 13.35 103.6 10.53 106.64 10.53C109.72 10.53 111.29 13.2 111.58 18.84L101.32 18.84ZM107.49 31.37C103.17 31.37 101.27 28.02 101.22 20.57L115.37 20.57C115.28 13.2 112.29 9.28 106.69 9.28C100.99 9.28 97.43 13.92 97.43 21.28C97.43 28.64 100.99 32.95 107.11 32.95C111.76 32.95 114.8 30.03 115.42 25.11L113.52 25.11C112.95 29.17 110.86 31.37 107.49 31.37ZM128.52 31.66C125.1 31.66 123.3 28.07 123.3 21.23C123.3 14.3 124.96 10.91 128.38 10.91C131.89 10.91 133.7 14.54 133.7 21.57C133.7 28.21 131.94 31.66 128.52 31.66ZM137.45 27.59L137.45 0C135.07 0.63 132.94 1.01 130.28 1.3L130.28 2.11C133.27 2.11 133.65 2.45 133.65 4.93L133.65 13.3C131.89 10.43 130.51 9.57 127.95 9.57C122.87 9.57 119.31 14.4 119.31 21.28C119.31 28.17 122.92 32.99 128.09 32.99C130.8 32.99 132.65 31.75 133.98 29.07C134.17 30.89 134.17 31.08 134.64 32.9C136.59 32.28 137.4 32.09 140.2 31.75L140.91 31.66L140.91 30.84C137.73 30.75 137.45 30.51 137.45 27.59ZM146.6 18.84C147.08 13.35 148.88 10.53 151.92 10.53C155.01 10.53 156.57 13.2 156.86 18.84L146.6 18.84ZM152.78 31.37C148.45 31.37 146.56 28.02 146.51 20.57L160.66 20.57C160.56 13.2 157.57 9.28 151.97 9.28C146.27 9.28 142.71 13.92 142.71 21.28C142.71 28.64 146.27 32.95 152.39 32.95C157.05 32.95 160.09 30.03 160.7 25.11L158.8 25.11C158.24 29.17 156.14 31.37 152.78 31.37ZM164.69 33L164.69 25.01L165.73 24.96C166.58 29.31 168.58 31.42 171.9 31.42C174.7 31.42 176.79 29.55 176.79 27.11C176.79 25.49 175.89 24.39 173.56 23.34L171.76 22.53L169.58 21.52C166.11 19.9 165.02 18.56 165.02 15.79C165.02 12.01 167.96 9.43 172.14 9.43C173.99 9.43 175.37 9.86 176.98 10.96L177.79 9L178.64 9L178.64 16.41L177.55 16.41C177.12 12.58 175.56 10.77 172.57 10.77C170.05 10.77 168.1 12.49 168.1 14.73C168.1 16.65 168.82 17.27 173.14 19.18L175.13 20.04C178.74 21.62 180.02 23.15 180.02 25.97C180.02 29.98 176.84 32.85 172.38 32.85C170.19 32.85 168.48 32.28 166.68 30.84L165.54 32.99L164.69 32.99L164.69 33ZM206.42 16.5C208.94 16.5 210.36 16.93 211.45 18.03C212.54 19.13 213.16 21.19 213.16 23.48C213.16 28.26 210.79 30.94 206.56 30.94L204.85 30.94C202.34 30.94 201.91 30.56 201.91 28.45L201.91 16.5L206.42 16.5ZM201.91 2.02L205.94 2.02C209.93 2.02 211.69 3.98 211.69 8.42C211.69 10.62 211.17 12.2 210.12 13.44C209.08 14.64 207.8 15.02 205.14 15.02L201.91 15.02L201.91 2.02ZM215.92 8.33C215.92 5.84 214.87 3.64 213.07 2.26C211.45 1.06 209.6 0.54 206.52 0.54L194.03 0.54L194.03 1.73C197.45 1.92 197.92 2.31 197.92 4.89L197.92 28.07C197.92 30.65 197.54 30.99 194.03 31.27L194.03 32.42L206.04 32.42C209.55 32.42 211.45 31.99 213.45 30.75C215.82 29.22 217.39 26.3 217.39 23.29C217.39 20.71 216.3 18.37 214.44 16.93C213.45 16.17 212.4 15.74 210.69 15.4C214.11 14.11 215.92 11.67 215.92 8.33ZM225.14 18.84C225.61 13.35 227.42 10.53 230.45 10.53C233.54 10.53 235.11 13.2 235.39 18.84L225.14 18.84ZM231.31 31.37C226.99 31.37 225.09 28.02 225.04 20.57L239.19 20.57C239.09 13.2 236.1 9.28 230.5 9.28C224.8 9.28 221.24 13.92 221.24 21.28C221.24 28.64 224.8 32.95 230.93 32.95C235.58 32.95 238.62 30.03 239.24 25.11L237.34 25.11C236.77 29.17 234.68 31.37 231.31 31.37ZM241.7 11.24L241.7 10.43C244.46 10.05 246.07 9.67 247.97 9C248.21 10.1 248.35 11.34 248.44 13.16C250.15 10.58 252.1 9.43 254.85 9.43C257.7 9.43 260.17 10.91 261.12 13.25C261.6 14.4 261.83 15.74 261.83 17.55L261.83 29.03C261.83 31.08 262.31 31.46 265.2 31.61L265.2 32.56C262.69 32.33 261.74 32.28 260.03 32.28C258.27 32.28 257.32 32.33 254.85 32.56L254.85 31.61C257.42 31.51 258.03 31.03 258.03 29.12L258.03 17.41C258.03 13.25 256.8 11.58 253.76 11.58C250.53 11.58 248.83 13.63 248.83 17.55L248.83 29.12C248.83 31.03 249.44 31.51 251.91 31.61L251.91 32.56C249.44 32.33 248.49 32.28 246.78 32.28C245.12 32.28 244.12 32.33 241.65 32.56L241.65 31.61C244.55 31.46 245.02 31.08 245.02 29.03L245.02 14.26L245.02 13.54C244.98 11.58 244.69 11.29 242.32 11.29C242.18 11.29 241.94 11.24 241.7 11.24ZM267.05 32.42L279.92 11.1L274.07 11.1C270.99 11.1 270.23 11.77 268.52 16.07L267.57 16.07L268.66 9.86L285 9.86L285 9.86L272.08 31.18L277.64 31.18C280.87 31.18 282.19 29.89 283.62 25.54L284.62 25.54L283.38 32.42L267.05 32.42Z" fill="#FFFFFF" fill-opacity="1.000000" fill-rule="evenodd"/>
</svg>
