<svg width="26.000000" height="26.000000" viewBox="0 0 26 26" fill="none" xmlns="http://www.w3.org/2000/svg" xmlns:xlink="http://www.w3.org/1999/xlink">
	<desc>
			Created with Pixso.
	</desc>
	<defs/>
	<rect width="26.212765" height="26.212765" transform="translate(-0.659668 -0.851074)" fill="#FFFFFF" fill-opacity="0"/>
	<path d="M23.17 5.86C22.42 6.19 21.62 6.41 20.78 6.51C21.64 6 22.29 5.18 22.61 4.21C21.8 4.69 20.91 5.04 19.97 5.22C19.21 4.41 18.13 3.91 16.93 3.91C14.64 3.91 12.78 5.77 12.78 8.06C12.78 8.39 12.81 8.71 12.88 9.01C9.43 8.84 6.37 7.18 4.32 4.67C3.96 5.28 3.76 6 3.76 6.76C3.76 8.2 4.49 9.47 5.61 10.22C4.93 10.19 4.29 10.01 3.72 9.69L3.72 9.75C3.72 11.76 5.16 13.44 7.06 13.82C6.71 13.91 6.34 13.97 5.96 13.97C5.69 13.97 5.43 13.94 5.18 13.89C5.71 15.54 7.24 16.74 9.06 16.77C7.64 17.89 5.85 18.55 3.9 18.55C3.57 18.55 3.23 18.53 2.91 18.49C4.75 19.67 6.93 20.36 9.28 20.36C16.92 20.36 21.1 14.03 21.1 8.54L21.09 8C21.9 7.42 22.61 6.69 23.17 5.86Z" fill="#010002" fill-opacity="1.000000" fill-rule="nonzero"/>
	<mask id="mask2_33" mask-type="alpha" maskUnits="userSpaceOnUse" x="2.914795" y="3.914879" width="20.255285" height="16.453112">
		<path d="M23.17 5.86C22.42 6.19 21.62 6.41 20.78 6.51C21.64 6 22.29 5.18 22.61 4.21C21.8 4.69 20.91 5.04 19.97 5.22C19.21 4.41 18.13 3.91 16.93 3.91C14.64 3.91 12.78 5.77 12.78 8.06C12.78 8.39 12.81 8.71 12.88 9.01C9.43 8.84 6.37 7.18 4.32 4.67C3.96 5.28 3.76 6 3.76 6.76C3.76 8.2 4.49 9.47 5.61 10.22C4.93 10.19 4.29 10.01 3.72 9.69L3.72 9.75C3.72 11.76 5.16 13.44 7.06 13.82C6.71 13.91 6.34 13.97 5.96 13.97C5.69 13.97 5.43 13.94 5.18 13.89C5.71 15.54 7.24 16.74 9.06 16.77C7.64 17.89 5.85 18.55 3.9 18.55C3.57 18.55 3.23 18.53 2.91 18.49C4.75 19.67 6.93 20.36 9.28 20.36C16.92 20.36 21.1 14.03 21.1 8.54L21.09 8C21.9 7.42 22.61 6.69 23.17 5.86Z" fill="#010002" fill-opacity="1.000000" fill-rule="nonzero"/>
	</mask>
	<g mask="url(#mask2_33)">
		<rect width="26.212765" height="26.212765" transform="translate(-0.659668 -0.851074)" fill="#FFFFFF" fill-opacity="0"/>
		<rect x="-0.659668" y="-0.851074" width="26.212765" height="26.212765" fill="#FFFFFF" fill-opacity="1.000000"/>
	</g>
</svg>
